<?xml version="1.0" encoding="UTF-8" standalone="no"?>
<!-- Created with Inkscape (http://www.inkscape.org/) -->

<svg
   xmlns:dc="http://purl.org/dc/elements/1.1/"
   xmlns:cc="http://creativecommons.org/ns#"
   xmlns:rdf="http://www.w3.org/1999/02/22-rdf-syntax-ns#"
   xmlns:svg="http://www.w3.org/2000/svg"
   xmlns="http://www.w3.org/2000/svg"
   xmlns:sodipodi="http://sodipodi.sourceforge.net/DTD/sodipodi-0.dtd"
   xmlns:inkscape="http://www.inkscape.org/namespaces/inkscape"
   width="210mm"
   height="297mm"
   viewBox="0 0 210 297"
   version="1.1"
   id="svg8"
   inkscape:version="0.92.3 (2405546, 2018-03-11)"
   sodipodi:docname="LogoNombreCompletoLila.svg">
  <defs
     id="defs2" />
  <sodipodi:namedview
     id="base"
     pagecolor="#ffffff"
     bordercolor="#666666"
     borderopacity="1.0"
     inkscape:pageopacity="0.0"
     inkscape:pageshadow="2"
     inkscape:zoom="0.94105027"
     inkscape:cx="171.06246"
     inkscape:cy="716.47205"
     inkscape:document-units="mm"
     inkscape:current-layer="layer1"
     showgrid="false"
     inkscape:window-width="1366"
     inkscape:window-height="705"
     inkscape:window-x="-8"
     inkscape:window-y="-8"
     inkscape:window-maximized="1" />
  <metadata
     id="metadata5">
    <rdf:RDF>
      <cc:Work
         rdf:about="">
        <dc:format>image/svg+xml</dc:format>
        <dc:type
           rdf:resource="http://purl.org/dc/dcmitype/StillImage" />
        <dc:title></dc:title>
      </cc:Work>
    </rdf:RDF>
  </metadata>
  <g
     inkscape:label="Capa 1"
     inkscape:groupmode="layer"
     id="layer1">
    <rect
       style="opacity:0.98999999;fill:#b28787;fill-opacity:1;stroke:none;stroke-width:1.29999995;stroke-linejoin:round;stroke-miterlimit:4;stroke-dasharray:none;stroke-opacity:0.95979901"
       id="rect10"
       width="133.04762"
       height="84.666664"
       x="35.442238"
       y="36.090305" />
    <text
       xml:space="preserve"
       style="font-style:normal;font-variant:normal;font-weight:bold;font-stretch:normal;font-size:10.58333302px;line-height:1.25;font-family:'Berlin Sans FB Demi';-inkscape-font-specification:'Berlin Sans FB Demi, Bold';font-variant-ligatures:normal;font-variant-caps:normal;font-variant-numeric:normal;font-feature-settings:normal;text-align:start;letter-spacing:0px;word-spacing:0px;writing-mode:lr-tb;text-anchor:start;fill:#000000;fill-opacity:1;stroke:none;stroke-width:0.26458332"
       x="43.370445"
       y="82.822571"
       id="text14"><tspan
         sodipodi:role="line"
         id="tspan12"
         x="43.370445"
         y="82.822571"
         style="letter-spacing:0px;stroke-width:0.26458332">Gloria Andrea</tspan><tspan
         sodipodi:role="line"
         x="43.370445"
         y="96.051735"
         style="letter-spacing:0px;stroke-width:0.26458332"
         id="tspan16" /><tspan
         sodipodi:role="line"
         x="43.370445"
         y="109.28091"
         style="letter-spacing:0px;stroke-width:0.26458332"
         id="tspan18" /></text>
    <text
       xml:space="preserve"
       style="font-style:normal;font-variant:normal;font-weight:bold;font-stretch:normal;font-size:10.58333302px;line-height:1.25;font-family:'Berlin Sans FB Demi';-inkscape-font-specification:'Berlin Sans FB Demi, Bold';font-variant-ligatures:normal;font-variant-caps:normal;font-variant-numeric:normal;font-feature-settings:normal;text-align:start;letter-spacing:0px;word-spacing:0px;writing-mode:lr-tb;text-anchor:start;fill:#000000;fill-opacity:1;stroke:none;stroke-width:0.26458332"
       x="42.826725"
       y="94.135612"
       id="text22"><tspan
         sodipodi:role="line"
         id="tspan20"
         x="42.826725"
         y="94.135612"
         style="letter-spacing:-0.00264583px;stroke-width:0.26458332">Montaño Vallejo</tspan></text>
    <text
       xml:space="preserve"
       style="font-style:normal;font-variant:normal;font-weight:bold;font-stretch:normal;font-size:8.46666622px;line-height:1.25;font-family:'Berlin Sans FB Demi';-inkscape-font-specification:'Berlin Sans FB Demi, Bold';font-variant-ligatures:normal;font-variant-caps:normal;font-variant-numeric:normal;font-feature-settings:normal;text-align:start;letter-spacing:0px;word-spacing:0px;writing-mode:lr-tb;text-anchor:start;fill:#000000;fill-opacity:1;stroke:none;stroke-width:0.26458332"
       x="42.877048"
       y="109.70319"
       id="text26"><tspan
         sodipodi:role="line"
         id="tspan24"
         x="42.877048"
         y="109.70319"
         style="font-style:normal;font-variant:normal;font-weight:normal;font-stretch:normal;font-size:8.81944466px;font-family:'Baskerville Old Face';-inkscape-font-specification:'Baskerville Old Face, Normal';font-variant-ligatures:normal;font-variant-caps:normal;font-variant-numeric:normal;font-feature-settings:normal;text-align:start;word-spacing:3.96875px;writing-mode:lr-tb;text-anchor:start;stroke-width:0.26458332">Administradora de empresas</tspan></text>
    <path
       sodipodi:type="spiral"
       style="fill:none;fill-rule:evenodd;stroke:#000000;stroke-width:0.26458332"
       id="path28"
       sodipodi:cx="93.625443"
       sodipodi:cy="55.485714"
       sodipodi:expansion="1"
       sodipodi:revolution="10.01"
       sodipodi:radius="13.366075"
       sodipodi:argument="-62.639503"
       sodipodi:t0="0"
       d="m 93.625443,55.485714 c 0.197141,0.0384 0.04551,0.284685 -0.06382,0.327662 -0.296255,0.116464 -0.560143,-0.185689 -0.591509,-0.455291 -0.05611,-0.482256 0.395864,-0.847801 0.846767,-0.855356 0.661718,-0.01109 1.140974,0.607804 1.119203,1.238243 -0.02902,0.840277 -0.820227,1.436316 -1.629719,1.38305 -1.018664,-0.06703 -1.732745,-1.032845 -1.646898,-2.021195 0.103973,-1.197025 1.245568,-2.029795 2.412672,-1.910745 1.375392,0.140297 2.327235,1.458353 2.174592,2.804148 -0.176232,1.553774 -1.67118,2.624934 -3.195624,2.438439 -1.732171,-0.211908 -2.922816,-1.884038 -2.702286,-3.587101 0.2474,-1.910579 2.096917,-3.220829 3.978577,-2.966133 2.088998,0.282761 3.518942,2.309814 3.22998,4.370054 -0.318022,2.267427 -2.522724,3.817132 -4.76153,3.493827 -2.445863,-0.353206 -4.115381,-2.735644 -3.757674,-5.153006 0.388329,-2.624305 2.948572,-4.413679 5.544482,-4.021521 2.802752,0.423404 4.712015,3.161508 4.285369,5.935958 -0.458441,2.981204 -3.37445,5.010384 -6.327435,4.549216 -3.159659,-0.493445 -5.30878,-3.587396 -4.813063,-6.718911 0.528422,-3.338117 3.800347,-5.607198 7.110387,-5.07691 3.516579,0.563376 5.905631,4.013301 5.340761,7.501863 -0.598315,3.695042 -4.226262,6.204088 -7.893343,5.604605 -3.873508,-0.63323 -6.502556,-4.439219 -5.868452,-8.284816 0.668134,-4.051976 4.652181,-6.801036 8.676292,-6.132299 4.230445,0.703026 7.099523,4.865145 6.396143,9.067768 -0.7379,4.408916 -5.078108,7.398027 -9.459241,6.659993 -4.587388,-0.772778 -7.696535,-5.291079 -6.923841,-9.85072 0.807642,-4.765861 5.504049,-7.995051 10.242197,-7.187688 4.944335,0.842497 8.293575,5.71702 7.451535,10.633673 -0.87735,5.12281 -5.929991,8.592103 -11.02515,7.715382 -5.301285,-0.912189 -8.890636,-6.142964 -7.979228,-11.416626 0.947026,-5.479762 6.355938,-9.189175 11.808102,-8.243076 5.658236,0.981859 9.487716,6.568913 8.506926,12.199579 -1.01669,5.836717 -6.781891,9.786265 -12.591058,8.77077 -6.015195,-1.051511 -10.084816,-6.994864 -9.034617,-12.982531 1.086332,-6.193675 7.207841,-10.38337 13.374007,-9.298464 6.372158,1.121149 10.681928,7.420818 9.562308,13.765483 -1.15596,6.550634 -7.633793,10.980488 -14.156956,9.826159 C 84.53519,66.418423 79.985253,59.762421 81.174298,53.060761 82.399881,46.153166 89.234053,41.483145 96.11421,42.706908 c 7.08608,1.260389 11.87618,8.272734 10.6177,15.331388 -0.0491,0.275496 -0.1069,0.549447 -0.17322,0.821314"
       transform="matrix(1.2146659,0,0,1.1869665,-18.764013,-9.8898613)" />
    <path
       sodipodi:type="spiral"
       style="fill:none;fill-rule:evenodd;stroke:#000000;stroke-width:0.26458332"
       id="path28-4"
       sodipodi:cx="114.37865"
       sodipodi:cy="55.538162"
       sodipodi:expansion="1"
       sodipodi:revolution="10.01"
       sodipodi:radius="13.366075"
       sodipodi:argument="-62.639503"
       sodipodi:t0="0"
       d="m 114.37865,55.538162 c 0.19714,0.0384 0.0455,0.284685 -0.0638,0.327662 -0.29625,0.116464 -0.56014,-0.185688 -0.59151,-0.455291 -0.0561,-0.482255 0.39587,-0.8478 0.84677,-0.855356 0.66172,-0.01109 1.14097,0.607804 1.1192,1.238243 -0.029,0.840277 -0.82022,1.436317 -1.62972,1.383051 -1.01866,-0.06703 -1.73274,-1.032846 -1.64689,-2.021196 0.10397,-1.197024 1.24556,-2.029795 2.41267,-1.910745 1.37539,0.140297 2.32723,1.458353 2.17459,2.804149 -0.17623,1.553774 -1.67118,2.624934 -3.19562,2.438438 -1.73217,-0.211907 -2.92282,-1.884037 -2.70229,-3.5871 0.2474,-1.91058 2.09692,-3.22083 3.97858,-2.966133 2.089,0.282761 3.51894,2.309813 3.22998,4.370053 -0.31802,2.267427 -2.52273,3.817132 -4.76153,3.493827 -2.44587,-0.353205 -4.11538,-2.735643 -3.75768,-5.153006 0.38833,-2.624305 2.94858,-4.413679 5.54449,-4.021521 2.80275,0.423404 4.71201,3.161508 4.28536,5.935958 -0.45844,2.981204 -3.37445,5.010384 -6.32743,4.549216 -3.15966,-0.493445 -5.30878,-3.587396 -4.81306,-6.718911 0.52842,-3.338117 3.80034,-5.607197 7.11038,-5.07691 3.51658,0.563376 5.90564,4.013301 5.34076,7.501863 -0.59831,3.695043 -4.22626,6.204088 -7.89334,5.604605 -3.87351,-0.63323 -6.50255,-4.439219 -5.86845,-8.284816 0.66813,-4.051976 4.65218,-6.801035 8.67629,-6.132299 4.23045,0.703026 7.09953,4.865146 6.39615,9.067768 -0.73791,4.408916 -5.07811,7.398027 -9.45925,6.659994 -4.58738,-0.772779 -7.69653,-5.29108 -6.92384,-9.850721 0.80764,-4.765861 5.50405,-7.995051 10.2422,-7.187688 4.94433,0.842498 8.29357,5.71702 7.45153,10.633674 -0.87734,5.122809 -5.92999,8.592102 -11.02515,7.715381 -5.30128,-0.912188 -8.89063,-6.142964 -7.97922,-11.416625 0.94702,-5.479762 6.35593,-9.189176 11.8081,-8.243076 5.65824,0.981859 9.48772,6.568912 8.50692,12.199578 -1.01669,5.836717 -6.78189,9.786266 -12.59105,8.77077 -6.0152,-1.051511 -10.08482,-6.994864 -9.03462,-12.982531 1.08633,-6.193674 7.20784,-10.38337 13.37401,-9.298464 6.37215,1.121149 10.68192,7.420819 9.56231,13.765483 -1.15597,6.550634 -7.6338,10.980488 -14.15696,9.826159 -6.72912,-1.190774 -11.27905,-7.846776 -10.09001,-14.548436 1.22559,-6.907595 8.05976,-11.577615 14.93991,-10.353853 7.08608,1.260389 11.87619,8.272734 10.6177,15.331388 -0.0491,0.275497 -0.1069,0.549447 -0.17322,0.821315"
       transform="matrix(1.193047,0,0,1.1981421,-21.020224,-10.376029)" />
  </g>
</svg>
